<svg xmlns="http://www.w3.org/2000/svg" xmlns:xlink="http://www.w3.org/1999/xlink" width="24" height="26" version="1.1" viewBox="0 0 24 26"><title>streamline-icon-show-hat-magician@24x24</title><desc>Created with Sketch.</desc><g id="CDN" fill="none" fill-rule="evenodd" stroke="none" stroke-linecap="round" stroke-linejoin="round" stroke-width="1"><g id="CDN-(promo)Rocket-CDN-(full)-Copy" stroke-width="1.5" transform="translate(-469.000000, -429.000000)"><g id="streamline-icon-show-hat-magician@24x24" transform="translate(470.000000, 430.000000)"><path id="Path" stroke="#121116" d="M16.3194103,11.1449631 L17.5135135,22.1837838 C17.5718919,23.0615823 16.9085012,23.8194398 16.0307027,23.8788796 C15.9946143,23.8810025 15.9574644,23.8820686 15.9213759,23.8820686 L4.77641278,23.8820686 C3.89755283,23.8841867 3.18321376,23.1730319 3.18109091,22.2931106 C3.18109091,22.2570221 3.18215233,22.2198722 3.18427518,22.1837838 L4.3751941,11.1449631"/><line id="Path" x1="16.748" x2="3.95" y1="15.125" y2="15.125" stroke="#121116"/><line id="Path" x1="0" x2="20.698" y1="11.145" y2="11.145" stroke="#121116"/><line id="Path" x1="22.29" x2="11.145" y1="0" y2="7.165" stroke="#F56640"/><line id="Path" x1=".796" x2="3.98" y1="1.592" y2="1.592" stroke="#F56640"/><line id="Path" x1="2.388" x2="2.388" y1="0" y2="3.184" stroke="#F56640"/><line id="Path" x1="4.776" x2="7.961" y1="6.369" y2="6.369" stroke="#F56640"/><line id="Path" x1="6.369" x2="6.369" y1="4.776" y2="7.961" stroke="#F56640"/></g></g></g></svg>