<svg xmlns="http://www.w3.org/2000/svg" width="49" height="32" fill="none" viewBox="0 0 49 32"><path fill="#FFD147" fill-rule="evenodd" d="M15.6 27.95C8.77929 27.95 3.25 22.4207 3.25 15.6C3.25 8.77929 8.77929 3.25 15.6 3.25C22.4207 3.25 27.95 8.77929 27.95 15.6C27.95 22.4207 22.4207 27.95 15.6 27.95Z" clip-rule="evenodd"/><path fill="#F56F46" fill-rule="evenodd" d="M32.4984 27.95C25.6777 27.95 20.1484 22.4207 20.1484 15.6C20.1484 8.77929 25.6777 3.25 32.4984 3.25C39.3191 3.25 44.8484 8.77929 44.8484 15.6C44.8484 22.4207 39.3191 27.95 32.4984 27.95Z" clip-rule="evenodd"/><path fill="#172153" fill-rule="evenodd" d="M24.0484 6.59375C26.4489 8.84677 27.9484 12.0485 27.9484 15.6005C27.9484 19.1524 26.4489 22.3541 24.0484 24.6071C21.6479 22.3541 20.1484 19.1524 20.1484 15.6005C20.1484 12.0485 21.6479 8.84677 24.0484 6.59375Z" clip-rule="evenodd"/></svg>