<svg xmlns="http://www.w3.org/2000/svg" xmlns:svg="http://www.w3.org/2000/svg" id="Layer_1" width="256" height="186.355" x="0" y="0" version="1.1" viewBox="26 -29 256 186.355" xml:space="preserve"><metadata id="metadata4396"/><style id="style4345" type="text/css">.st1,.st2{fill:#757575}.st2,.st3,.st4,.st5{fill-rule:evenodd;clip-rule:evenodd}.st3{fill:#ffc517}.st4{fill:#f57e02}.st5{fill:url(#SVGID_1_)}</style><linearGradient id="SVGID_1_" x1="103.252" x2="119.015" y1="39.101" y2="39.101" gradientUnits="userSpaceOnUse"><stop id="stop4386" offset="0" style="stop-color:#e96f0b"/><stop id="stop4388" offset="1" style="stop-color:#f37901"/></linearGradient><g id="g4398" transform="matrix(2.7205101,0,0,2.7205101,-107.03294,-52.668438)"><path style="fill:#757575" id="path4349" d="m 97.5,66.4 0,0 1.6,4.2 -3.1,0 1.5,-4.2 z m -0.6,-1.4 -3.5,9.2 1.3,0 0.9,-2.5 3.9,0 0.9,2.5 1.3,0 -3.5,-9.2 -1.3,0 z" class="st1"/><path style="fill:#757575" id="path4351" d="m 115.8,74.2 1.2,0 0,-9.2 -1.2,0 0,9.2 z" class="st1"/><path style="fill:#757575" id="path4353" d="m 103.5,68.8 0,0 c 0.4,-0.6 1.2,-1.1 2,-1.1 1.6,0 2.4,1.1 2.4,2.7 l 0,3.9 -1.2,0 0,-3.7 c 0,-1.3 -0.7,-1.8 -1.6,-1.8 -1,0 -1.7,1 -1.7,1.9 l 0,3.5 -1.2,0 0,-6.4 1.2,0 0.1,1 z" class="st1"/><path style="fill:#757575" id="path4355" d="m 108.9,72.3 c 0,-1.4 1.3,-2.2 2.8,-2.2 0.9,0 1.5,0.2 1.7,0.4 l 0,-0.2 c 0,-1 -0.8,-1.5 -1.6,-1.5 -0.7,0 -1.3,0.3 -1.5,0.9 l -1.1,-0.5 c 0.2,-0.6 1,-1.5 2.6,-1.5 1.5,0 2.8,0.9 2.8,2.7 l 0,3.8 -1.1,0 0,-0.9 -0.1,0 c -0.3,0.5 -1,1.1 -2.1,1.1 -1.3,0 -2.4,-0.8 -2.4,-2.1 m 4.5,-0.8 c 0,0 -0.5,-0.4 -1.5,-0.4 -1.2,0 -1.7,0.7 -1.7,1.2 0,0.7 0.7,1 1.3,1 0.9,0 1.9,-0.8 1.9,-1.8" class="st1"/><path style="clip-rule:evenodd;fill:#757575;fill-rule:evenodd" id="path4357" d="m 118.7,77 0,0 1.4,-3.3 -2.5,-5.8 1.2,0 1.9,4.4 1.9,-4.4 1.2,0 -3.9,9.1 -1.2,0 0,0 z" class="st2"/><path style="clip-rule:evenodd;fill:#757575;fill-rule:evenodd" id="path4359" d="m 136.3,70 c -0.3,-0.8 -1,-1.3 -1.7,-1.3 -1,0 -1.9,0.9 -1.9,2.2 0,1.3 0.9,2.2 1.9,2.2 0.7,0 1.4,-0.5 1.7,-1.2 l 1,0.6 c -0.5,1.1 -1.5,1.8 -2.7,1.8 -1.7,0 -3.1,-1.5 -3.1,-3.4 0,-2 1.4,-3.4 3.1,-3.4 1.2,0 2.2,0.7 2.7,1.8 l -1,0.7 z" class="st2"/><path style="fill:#757575" id="path4361" d="m 140.6,74.4 c 1.6,0 2.4,-0.9 2.4,-2 0,-2.4 -3.5,-1.5 -3.5,-2.9 0,-0.5 0.4,-0.8 1.1,-0.8 0.7,0 1.4,0.3 1.7,0.8 l 0.7,-0.7 c -0.4,-0.5 -1.5,-1.2 -2.5,-1.2 -1.5,0 -2.3,0.9 -2.3,2 0,2.3 3.6,1.5 3.6,2.7 0,0.6 -0.4,1 -1.2,1 -0.8,0 -1.2,-0.5 -1.6,-1 l -0.9,0.7 c 0.6,0.6 1.5,1.4 2.5,1.4 z" class="st1"/><path style="fill:#757575" id="path4363" d="m 129.2,74.2 1.2,0 0,-6.4 -1.2,0 0,6.4 z" class="st1"/><path style="clip-rule:evenodd;fill:#757575;fill-rule:evenodd" id="path4365" d="m 129.7,64.7 c 0.5,0 0.8,0.4 0.8,0.8 0,0.5 -0.4,0.8 -0.8,0.8 -0.4,0 -0.8,-0.4 -0.8,-0.8 0,-0.4 0.4,-0.8 0.8,-0.8 z" class="st2"/><path style="clip-rule:evenodd;fill:#757575;fill-rule:evenodd" id="path4367" d="m 128,73.2 0.2,0.9 c -0.4,0 -0.8,0 -1.2,0 -1.1,0 -1.6,-0.8 -1.6,-2 l 0,-3.1 -1.2,0 0,-1.2 1.2,0 0,-1.9 1.2,0 0,1.9 1.4,0 0,1.2 -1.4,0 0,3.3 c 0,0.9 0.7,0.9 1.4,0.9 z" class="st2"/><path style="fill:#757575" id="path4369" d="m 54.3,68.7 0,1.5 3.5,0 C 57.7,71 57.4,71.6 57,72 c -0.5,0.5 -1.3,1.1 -2.7,1.1 -2.1,0 -3.8,-1.7 -3.8,-3.9 0,-2.1 1.7,-3.9 3.8,-3.9 1.2,0 2,0.5 2.6,1 l 1,-1 c -0.9,-0.8 -2,-1.5 -3.6,-1.5 -2.9,0 -5.4,2.4 -5.4,5.3 0,2.9 2.5,5.3 5.4,5.3 1.6,0 2.8,-0.5 3.7,-1.5 1,-1 1.3,-2.3 1.3,-3.4 0,-0.3 0,-0.7 -0.1,-0.9 l -4.9,0 z" class="st1"/><path style="fill:#757575" id="path4371" d="m 63.2,67.5 c -1.9,0 -3.4,1.4 -3.4,3.4 0,2 1.5,3.4 3.4,3.4 1.9,0 3.4,-1.5 3.4,-3.4 0,-2 -1.5,-3.4 -3.4,-3.4 z m 0,5.5 c -1,0 -1.9,-0.9 -1.9,-2.1 0,-1.2 0.9,-2.1 1.9,-2.1 1,0 1.9,0.8 1.9,2.1 0,1.3 -0.9,2.1 -1.9,2.1 z" class="st1"/><path style="fill:#757575" id="path4373" d="m 79.6,68.2 0,0 c -0.4,-0.4 -1,-0.8 -1.9,-0.8 -1.7,0 -3.2,1.5 -3.2,3.4 0,1.9 1.5,3.4 3.2,3.4 0.8,0 1.5,-0.4 1.8,-0.8 l 0.1,0 0,0.5 c 0,1.3 -0.7,2 -1.8,2 -0.9,0 -1.5,-0.7 -1.7,-1.2 l -1.3,0.5 c 0.4,0.9 1.4,2 3,2 1.8,0 3.3,-1 3.3,-3.6 l 0,-6.2 -1.4,0 0,0.8 z M 77.9,73 c -1,0 -1.8,-0.9 -1.8,-2.1 0,-1.2 0.8,-2.1 1.8,-2.1 1,0 1.8,0.9 1.8,2.1 0,1.2 -0.8,2.1 -1.8,2.1 z" class="st1"/><path style="fill:#757575" id="path4375" d="m 70.6,67.5 c -1.9,0 -3.4,1.4 -3.4,3.4 0,2 1.5,3.4 3.4,3.4 1.9,0 3.4,-1.5 3.4,-3.4 0.1,-2 -1.5,-3.4 -3.4,-3.4 z m 0,5.5 c -1,0 -1.9,-0.9 -1.9,-2.1 0,-1.2 0.9,-2.1 1.9,-2.1 1,0 1.9,0.8 1.9,2.1 0,1.3 -0.9,2.1 -1.9,2.1 z" class="st1"/><path style="fill:#757575" id="path4377" d="m 82.2,63.9 1.5,0 0,10.4 -1.5,0 0,-10.4 z" class="st1"/><path style="fill:#757575" id="path4379" d="M 87.8,73 C 87,73 86.5,72.6 86.1,72 l 4.6,-1.9 -0.2,-0.4 c -0.3,-0.8 -1.2,-2.2 -2.9,-2.2 -1.8,0 -3.2,1.4 -3.2,3.4 0,1.9 1.5,3.4 3.4,3.4 1.6,0 2.5,-1 2.9,-1.5 L 89.5,72 c -0.4,0.6 -0.9,1 -1.7,1 l 0,0 z m -0.1,-4.2 c 0.6,0 1.1,0.3 1.3,0.8 l -3.1,1.3 c 0,-1.5 1,-2.1 1.8,-2.1 z" class="st1"/><path style="clip-rule:evenodd;fill:#ffc517;fill-rule:evenodd" id="path4381" d="m 93.8,54.9 -2.6,0 -14.5,0 c -2.1,0 -3.8,-1.7 -3.8,-3.8 l 0,-8.2 c 0,-2.1 1.7,-3.8 3.8,-3.8 l 10.8,0 0,-12 c 0,-2.1 1.7,-3.8 3.8,-3.8 l 12,0 0,31.5 -9.5,0 z" class="st3"/><path style="clip-rule:evenodd;fill:#f57e02;fill-rule:evenodd" id="path4383" d="m 115.3,54.9 -12,0 0,-42.4 c 0,-2.1 1.7,-3.8 3.8,-3.8 l 8.2,0 c 2.1,0 3.8,1.7 3.8,3.8 l 0,38.6 c -0.1,2.1 -1.8,3.8 -3.8,3.8 z" class="st4"/><path style="clip-rule:evenodd;fill:url(#SVGID_1_);fill-rule:evenodd" id="path4390" d="m 119,39.1 0,12 c 0,2.1 -1.7,3.8 -3.8,3.8 l -12,0 0,-31.6 15.8,15.8 z" class="st5"/></g></svg>