<svg xmlns="http://www.w3.org/2000/svg" xmlns:xlink="http://www.w3.org/1999/xlink" id="Calque_1" x="0" y="0" enable-background="new 103.4 123.5 76 134.4" version="1.1" viewBox="103.4 123.5 76 134.4" xml:space="preserve"><g><g transform="translate(-29 -17) translate(29 17)"><linearGradient id="SVGID_1_" x1="3.255" x2="3.255" y1=".191" y2="-.484" gradientTransform="matrix(37.3684 0 0 73.3058 19.5795 243.9274)" gradientUnits="userSpaceOnUse"><stop offset="0" style="stop-color:#f56640"/><stop offset=".244" style="stop-color:#f57840"/><stop offset="1" style="stop-color:#ffbe54"/></linearGradient><path fill="url(#SVGID_1_)" d="M159.6,192.8c-2.5,0-4.9-1.5-6.1-3.8l-2-4.4h-19.8l-2,4.4c-1.2,2.3-3.5,3.8-6.1,3.8h-1.1L131,257 c0.4,1.2,1.2,1.2,1.7,0l8.4-20.5l7.3,20.5c0.4,1.2,1.2,1.2,1.7,0l9.8-64.1L159.6,192.8L159.6,192.8z"/><linearGradient id="SVGID_2_" x1="3.64" x2="3.64" y1="-.204" y2="-.997" gradientTransform="matrix(32.7896 0 0 49.9855 21.9466 242.1502)" gradientUnits="userSpaceOnUse"><stop offset="0" style="stop-color:#f56640"/><stop offset=".181" style="stop-color:#f57840"/><stop offset="1" style="stop-color:#ffbe54"/></linearGradient><path fill="url(#SVGID_2_)" d="M150.7,182.8h-18.2l-2.8,6.2c-0.9,1.9-2.8,3.2-4.8,3.6l6.4,39.6c0.4,0.7,1.2,0.7,1.7,0l8.2-12.4 l7.5,12.3c0.5,0.7,1.2,0.7,1.7,0l7.3-39.7c-1.8-0.5-3.4-1.8-4.2-3.5L150.7,182.8L150.7,182.8z"/><linearGradient id="SVGID_3_" x1="4.38" x2="4.38" y1=".029" y2="-1.329" gradientTransform="matrix(26.5261 0 0 55.1922 25.1065 221.8337)" gradientUnits="userSpaceOnUse"><stop offset="0" style="stop-color:#f56640"/><stop offset=".084" style="stop-color:#f57840"/><stop offset="1" style="stop-color:#ffbe54"/></linearGradient><path fill="url(#SVGID_3_)" d="M153.5,189l-11.9-26.5L129.7,189c-0.4,0.8-0.9,1.5-1.6,2l4.9,26.3c0.3,0.4,0.9,0.5,1.4,0l6.6-8.7 l6.6,8.7c0.4,0.5,1.2,0.4,1.4,0l5.5-26.6C154.2,190.2,153.8,189.7,153.5,189"/><linearGradient id="SVGID_4_" x1="4.38" x2="4.38" y1="-.231" y2="-1.075" gradientTransform="matrix(26.5261 0 0 55.1922 25.1065 221.8337)" gradientUnits="userSpaceOnUse"><stop offset="0" style="stop-color:#f56640"/><stop offset=".391" style="stop-color:#f57840"/><stop offset="1" style="stop-color:#ffbe54"/></linearGradient><path fill="url(#SVGID_4_)" d="M153.5,189l-11.9-26.5L129.7,189 c-0.4,0.8-0.9,1.5-1.6,2l4.9,26.3c0.3,0.4,0.9,0.5,1.4,0l6.6-8.7l6.6,8.7c0.4,0.5,1.2,0.4,1.4,0l5.5-26.6 C154.2,190.2,153.8,189.7,153.5,189" enable-background="new" opacity=".5"/><path fill="#FFF" d="M103.5,126.4c-0.4-1.3,0.4-2.1,1.6-2.1h10.5c0.7,0,1.4,0.6,1.6,1.3l7.7,30.1h0.4l13.8-31.2 c0.3-0.5,0.8-1,1.5-1h1.6c0.8,0,1.3,0.4,1.5,1l13.8,31.2h0.4l7.7-30.1c0.2-0.6,0.9-1.3,1.6-1.3h10.5c1.3,0,1.9,0.9,1.6,2.1 L162.4,186c-0.2,0.7-0.9,1.3-1.6,1.3h-1.4c-0.6,0-1.3-0.4-1.5-1L141.6,150h-0.3L125,186.3c-0.3,0.5-0.9,1-1.5,1h-1.4 c-0.7,0-1.4-0.5-1.6-1.3L103.5,126.4"/></g></g></svg>